<?xml version="1.0" standalone="no"?>
<!DOCTYPE svg PUBLIC "-//W3C//DTD SVG 20010904//EN"
 "http://www.w3.org/TR/2001/REC-SVG-20010904/DTD/svg10.dtd">
<svg version="1.0" xmlns="http://www.w3.org/2000/svg"
 width="1480.000000pt" height="290.000000pt" viewBox="0 0 1480.000000 290.000000"
 preserveAspectRatio="xMidYMid meet">
<metadata>
Created by potrace 1.16, written by Peter Selinger 2001-2019
</metadata>
<g transform="translate(0.000000,290.000000) scale(0.100000,-0.100000)"
fill="black" stroke="black" stroke-width="4">
<path stroke="#000000" stroke-width="4" d="M4044 2648 c-15 -24 -35 -55 -46 -70 -10 -15 -18 -30 -18 -33 0 -8
-40 -99 -101 -230 -11 -22 -19 -49 -19 -61 0 -37 -23 -58 -56 -49 -71 18 -155
17 -222 -4 -37 -11 -101 -30 -142 -42 -79 -23 -135 -56 -184 -108 -17 -17 -38
-31 -48 -31 -9 0 -45 18 -79 40 -34 22 -68 40 -76 40 -8 0 -28 7 -44 16 -50
25 -192 37 -308 26 -56 -6 -108 -15 -114 -20 -7 -5 -23 -13 -37 -17 -27 -8
-130 -75 -169 -109 -17 -15 -25 -18 -28 -8 -9 23 -54 72 -68 72 -7 0 -18 7
-25 15 -6 8 -37 26 -67 40 -60 27 -132 32 -213 14 -25 -5 -67 -15 -95 -20 -59
-12 -200 -57 -235 -76 -14 -7 -29 -13 -35 -13 -15 0 -106 -48 -127 -67 -28
-25 -70 -20 -114 14 -21 16 -61 46 -89 66 -27 20 -54 40 -60 44 -99 78 -278
148 -356 139 -66 -7 -114 -33 -132 -72 -11 -22 -26 -36 -44 -40 -63 -15 -237
-151 -269 -210 -11 -22 -30 -55 -42 -75 -11 -20 -25 -45 -31 -55 -15 -28 -48
-105 -56 -134 -3 -14 -12 -38 -20 -55 -25 -59 -38 -246 -24 -363 14 -127 44
-212 122 -357 32 -58 91 -107 182 -150 141 -68 192 -79 300 -66 49 5 113 12
140 15 47 4 69 14 276 122 14 8 48 36 76 64 57 56 79 61 126 26 78 -57 207
-105 288 -106 61 0 126 25 163 64 l34 37 49 -48 c26 -26 62 -55 78 -63 17 -8
39 -22 50 -31 34 -28 119 -43 173 -29 26 6 57 18 69 26 13 8 24 10 28 4 3 -5
27 -20 53 -32 42 -20 62 -23 187 -22 139 0 301 25 351 53 10 6 35 18 54 26 49
22 94 47 100 55 3 4 15 13 28 19 22 12 29 7 100 -66 90 -92 196 -150 315 -172
26 -5 50 -11 53 -14 3 -2 8 -27 13 -55 9 -58 25 -82 52 -82 25 0 40 41 37 99
l-3 46 55 11 c97 20 135 45 271 176 80 76 100 106 124 178 53 163 83 564 51
662 -8 24 -21 68 -30 98 -23 87 -61 187 -88 235 -6 11 -17 31 -24 45 -16 29
-114 120 -130 120 -6 0 -18 7 -25 16 -7 9 -24 20 -37 25 -21 8 -23 14 -18 45
6 28 77 179 116 244 40 68 88 151 102 179 17 34 17 35 -4 58 -12 13 -25 23
-30 23 -4 0 -20 -19 -34 -42z m-280 -538 c45 -19 56 -36 36 -56 -6 -6 -13 -35
-17 -65 -3 -30 -12 -66 -19 -81 -21 -41 -36 -261 -32 -459 3 -197 11 -226 53
-207 14 6 28 22 32 36 7 29 -3 148 -18 206 -14 57 -6 330 14 450 13 79 21 105
40 124 l25 24 55 -36 c30 -20 71 -56 89 -79 38 -47 118 -188 118 -209 0 -7 7
-26 16 -43 15 -29 35 -126 55 -270 12 -92 8 -253 -7 -266 -6 -5 -15 -35 -19
-67 -4 -31 -15 -76 -26 -99 -10 -23 -19 -46 -19 -52 0 -22 -71 -129 -113 -170
-54 -52 -75 -65 -174 -107 -51 -21 -127 -28 -140 -13 -38 49 -60 615 -27 698
20 51 16 73 -17 82 -64 17 -71 -25 -59 -356 5 -148 12 -302 15 -341 7 -104 -1
-108 -115 -56 -91 42 -158 91 -191 144 -30 47 -31 51 -19 91 6 23 16 47 20 52
4 6 16 41 25 79 25 98 11 157 -51 220 -46 46 -78 60 -168 72 -63 9 -71 26 -42
97 25 61 42 87 60 87 25 0 86 71 120 139 30 61 36 82 36 137 0 36 -5 74 -11
86 -43 80 198 223 383 227 26 1 66 -8 92 -19z m-2736 -31 c68 -29 145 -70 163
-85 8 -8 19 -14 23 -14 11 0 116 -87 138 -115 18 -23 18 -24 -2 -63 -22 -42
-19 -89 6 -99 7 -3 27 5 43 16 16 12 33 21 38 21 18 0 60 -115 71 -191 6 -42
14 -83 17 -92 14 -35 -26 -40 -324 -34 -157 3 -302 11 -321 16 -59 18 -134 14
-164 -10 -26 -21 -35 -62 -16 -74 6 -3 166 -8 358 -11 191 -2 367 -7 392 -11
l45 -8 3 -52 c2 -35 -3 -66 -16 -95 -11 -24 -23 -53 -26 -66 -4 -12 -23 -34
-42 -48 -20 -16 -34 -35 -34 -48 0 -28 -35 -93 -68 -125 -62 -60 -149 -124
-192 -141 -14 -5 -38 -17 -54 -25 -43 -23 -178 -38 -287 -32 -80 4 -105 10
-156 36 -70 35 -173 125 -198 174 -9 17 -30 56 -46 86 -74 139 -94 348 -50
533 12 54 27 100 32 103 5 4 9 14 9 24 0 36 76 167 126 217 76 77 141 106 328
149 44 10 69 23 95 49 42 42 47 43 109 15z m1922 -9 c58 -12 145 -55 193 -93
26 -20 27 -24 16 -55 -14 -42 -7 -58 35 -79 43 -20 49 -34 36 -84 -13 -46 -92
-129 -124 -129 -11 0 -37 16 -57 36 -42 41 -68 40 -88 -3 -11 -23 -9 -30 20
-66 27 -33 30 -43 20 -59 -9 -14 -8 -25 4 -48 8 -16 15 -36 15 -45 0 -25 -50
-94 -74 -101 -45 -14 -86 -54 -86 -85 0 -47 38 -56 106 -24 74 35 174 35 249
0 69 -33 85 -58 85 -137 0 -69 -4 -79 -38 -97 -19 -10 -23 -9 -31 11 -4 13
-11 50 -15 83 -5 45 -13 66 -31 85 l-25 24 -21 -21 c-12 -12 -22 -34 -22 -50
1 -40 31 -167 48 -200 22 -41 19 -55 -18 -84 -103 -82 -188 -104 -402 -104
-160 0 -173 2 -222 25 -64 30 -71 52 -43 134 15 43 21 80 19 140 -1 97 4 111
42 125 50 17 57 50 31 150 -30 118 -29 141 13 195 38 50 43 77 21 95 -14 12
-42 11 -142 -5 -37 -5 -56 -37 -43 -72 7 -19 15 -23 41 -20 l33 3 3 -120 c4
-184 -4 -197 -79 -117 -42 45 -70 68 -128 103 -32 19 -38 52 -14 71 41 29 99
114 112 162 15 54 19 184 7 226 -7 22 1 34 56 91 35 35 81 72 103 82 22 10 50
23 62 29 11 6 54 19 95 29 78 19 148 19 238 -1z m-744 -30 c55 -34 82 -64 111
-128 23 -50 25 -65 21 -151 -5 -107 -23 -154 -79 -206 -77 -71 -149 -151 -149
-166 0 -22 25 -41 100 -74 93 -41 170 -93 170 -117 0 -4 -15 -14 -34 -22 -47
-20 -62 -50 -41 -82 15 -23 17 -23 45 -9 65 34 100 10 100 -68 0 -66 -24 -135
-58 -168 -15 -15 -42 -43 -60 -63 -27 -30 -39 -36 -74 -36 -89 0 -183 92 -274
271 -8 14 -25 36 -39 49 l-25 23 -25 -23 c-29 -27 -30 -35 -10 -74 31 -59 15
-94 -68 -145 -92 -57 -263 7 -323 122 -13 24 -13 34 0 76 8 27 21 62 30 79 9
17 16 40 16 52 0 33 38 132 60 155 25 27 26 57 0 80 -17 16 -20 31 -20 110 0
97 -21 191 -63 274 l-21 44 49 44 c28 24 61 50 75 57 205 108 270 126 441 122
91 -2 111 -6 145 -26z"/>
<path d="M712 1838 c-16 -16 -15 -65 0 -75 7 -4 33 -15 58 -23 60 -20 65 -48
17 -94 -57 -53 -69 -87 -43 -122 14 -18 15 -18 45 10 17 17 31 35 31 42 0 18
51 71 76 78 23 7 83 -45 163 -142 62 -75 121 -81 121 -13 0 27 -45 81 -66 81
-6 0 -33 20 -62 44 -28 24 -57 46 -64 48 -19 7 -1 25 32 31 16 4 41 14 55 23
21 14 25 24 23 53 -4 50 -23 50 -109 1 l-72 -40 -51 38 c-101 77 -127 87 -154
60z"/>
<path d="M1844 1839 c-17 -19 -19 -39 -20 -208 0 -102 -4 -213 -8 -247 -8 -68
6 -97 44 -87 35 9 42 37 35 146 -3 56 -2 163 3 237 10 136 4 180 -21 180 -8 0
-22 -9 -33 -21z"/>
<path d="M12364 2648 c-15 -24 -35 -55 -46 -70 -10 -15 -18 -30 -18 -33 0 -8
-40 -99 -101 -230 -11 -22 -19 -49 -19 -61 0 -37 -23 -58 -56 -49 -71 18 -155
17 -222 -4 -37 -11 -101 -30 -142 -42 -41 -12 -94 -35 -116 -50 -47 -32 -144
-137 -144 -156 0 -7 -11 -20 -25 -29 -25 -16 -26 -15 -73 25 -55 49 -55 49
-107 81 -89 55 -221 100 -295 100 -50 0 -162 -30 -221 -60 -49 -25 -113 -74
-173 -132 -22 -21 -43 -38 -47 -38 -5 0 -114 117 -139 149 -16 21 -112 90
-151 109 -59 28 -108 28 -200 -2 -122 -39 -242 -113 -334 -206 -27 -27 -55
-50 -60 -50 -6 0 -31 21 -55 46 -63 64 -144 110 -219 125 -75 14 -112 5 -176
-44 -22 -17 -45 -34 -51 -39 -7 -5 -35 14 -75 52 -35 33 -68 60 -74 60 -5 0
-23 8 -40 17 -19 10 -63 18 -122 21 -80 4 -99 1 -150 -19 -69 -28 -122 -60
-184 -111 -26 -21 -48 -38 -51 -38 -3 0 -23 13 -44 30 -22 16 -43 33 -49 37
-76 58 -157 92 -239 100 -59 5 -89 1 -221 -31 -132 -31 -257 -108 -270 -165
-3 -16 -17 -38 -29 -50 l-24 -22 -59 58 c-65 64 -70 67 -128 103 -59 37 -112
60 -187 81 -85 24 -131 24 -216 0 -84 -23 -142 -52 -205 -101 -55 -45 -82 -43
-103 5 -7 18 -26 40 -41 51 -49 32 -155 84 -172 84 -9 0 -21 4 -26 9 -17 16
-127 44 -194 48 -35 3 -84 0 -109 -7 -26 -6 -80 -15 -122 -20 -41 -5 -88 -16
-105 -24 -16 -9 -36 -16 -43 -16 -8 0 -25 -9 -39 -20 -14 -11 -31 -20 -38 -20
-7 0 -18 -6 -24 -14 -7 -8 -36 -27 -64 -41 -110 -57 -196 -176 -248 -345 -20
-65 -23 -95 -22 -230 1 -85 6 -175 12 -200 21 -93 44 -166 57 -185 8 -11 14
-29 14 -42 0 -12 5 -25 10 -28 6 -4 20 -27 32 -53 23 -49 142 -182 163 -182 6
0 20 -9 30 -20 10 -11 25 -20 34 -20 9 0 29 -7 45 -15 111 -58 477 -31 557 41
8 8 20 14 26 14 5 0 18 9 28 20 10 11 22 20 27 20 13 0 59 36 108 83 l40 38
72 -59 c40 -32 109 -76 153 -97 67 -32 93 -39 162 -43 47 -2 87 -10 93 -17 5
-6 14 -65 20 -131 9 -107 13 -122 36 -144 l25 -25 19 25 c11 14 20 33 20 44 0
21 -25 121 -46 183 -20 62 -7 87 53 102 26 6 64 18 83 26 19 7 69 23 110 35
41 11 93 30 115 40 22 11 45 20 51 20 6 0 31 -23 55 -50 43 -49 142 -133 184
-156 11 -6 42 -23 68 -37 48 -26 191 -67 234 -67 33 0 134 43 189 79 25 17 49
31 53 31 10 0 71 76 71 88 0 5 9 17 20 27 11 10 20 31 20 47 0 24 4 28 30 28
18 0 49 -14 77 -33 61 -42 123 -72 195 -93 53 -15 63 -15 150 1 87 16 190 55
203 76 8 12 50 12 73 0 97 -52 131 -63 197 -68 56 -4 80 -2 108 12 50 24 150
157 171 227 10 33 57 22 111 -25 46 -40 229 -167 240 -167 3 0 23 -12 45 -26
34 -22 40 -33 45 -73 4 -25 11 -62 16 -82 5 -20 13 -99 18 -174 9 -130 11
-140 36 -164 l26 -26 32 38 c36 41 43 44 67 22 15 -14 19 -13 35 5 10 11 18
32 18 47 0 43 -21 163 -37 208 -17 48 -22 111 -12 142 5 16 20 26 49 33 56 14
80 27 127 67 45 39 78 42 117 9 15 -12 64 -40 108 -61 67 -32 93 -39 162 -43
47 -2 87 -10 93 -17 5 -6 14 -65 20 -131 9 -107 13 -122 36 -144 l25 -25 19
25 c11 14 20 33 20 44 0 21 -25 121 -46 183 -20 62 -7 87 53 102 26 6 64 18
83 26 19 7 69 23 110 35 41 11 94 30 117 41 23 12 46 18 52 14 6 -3 33 -39 60
-79 27 -40 71 -91 98 -112 68 -56 178 -107 266 -123 26 -5 50 -11 53 -14 3 -2
8 -27 13 -55 9 -58 25 -82 52 -82 25 0 40 41 37 99 l-3 46 55 11 c95 20 135
45 264 168 32 31 62 56 66 56 5 0 40 -31 78 -69 82 -81 194 -140 305 -160 26
-5 50 -11 53 -14 3 -2 8 -27 13 -55 9 -58 25 -82 52 -82 25 0 40 41 37 99 l-3
46 55 11 c97 20 135 45 271 176 80 76 100 106 124 178 53 163 83 564 51 662
-8 24 -21 68 -30 98 -23 87 -61 187 -88 235 -6 11 -17 31 -24 45 -16 29 -114
120 -130 120 -6 0 -18 7 -25 16 -7 9 -24 20 -37 25 -21 8 -23 14 -18 45 6 28
77 179 116 244 41 69 88 151 102 180 18 34 18 35 -6 58 -29 30 -38 25 -77 -41
-16 -29 -34 -59 -39 -67 -5 -8 -19 -37 -30 -65 -23 -54 -48 -109 -80 -177 -11
-24 -20 -52 -20 -64 0 -37 -23 -58 -56 -49 -71 18 -155 17 -222 -4 -37 -11
-101 -30 -142 -42 -87 -25 -141 -59 -199 -125 -47 -53 -46 -53 -131 25 -25 22
-50 41 -56 41 -6 0 -18 7 -25 16 -7 9 -24 20 -37 25 -21 8 -23 14 -18 45 6 28
77 179 116 244 40 68 88 151 102 179 17 34 17 35 -4 58 -12 13 -25 23 -30 23
-4 0 -20 -19 -34 -42z m-6019 -534 c62 -14 138 -46 213 -89 13 -7 41 -30 63
-51 44 -43 51 -86 23 -139 -8 -16 -14 -38 -13 -50 3 -40 -2 -48 -52 -97 -48
-47 -54 -49 -97 -46 -42 3 -48 0 -59 -23 -20 -40 0 -97 40 -114 57 -24 144
-111 172 -173 24 -50 26 -66 22 -132 -4 -68 -28 -147 -56 -183 -96 -123 -227
-210 -366 -244 -184 -46 -337 -16 -470 91 -138 112 -193 194 -226 336 -10 41
-22 93 -28 115 -6 22 -11 85 -11 141 0 268 134 497 350 595 14 6 39 18 55 26
96 46 320 65 440 37z m5739 -4 c45 -19 56 -36 36 -56 -6 -6 -13 -35 -17 -65
-3 -30 -12 -66 -19 -81 -21 -41 -36 -261 -32 -459 3 -197 11 -226 53 -207 14
6 28 22 32 36 7 29 -3 148 -18 206 -14 57 -6 330 14 450 13 79 21 105 40 124
l25 24 55 -36 c64 -42 127 -115 127 -145 0 -12 18 -44 40 -72 22 -28 40 -58
40 -67 0 -10 7 -30 16 -47 15 -29 35 -124 55 -270 12 -90 9 -246 -6 -265 -6
-8 -17 -44 -23 -79 -17 -96 -27 -97 -44 -2 -8 41 -19 68 -35 83 l-23 22 -22
-21 c-11 -12 -21 -34 -21 -50 1 -40 31 -167 48 -200 8 -15 15 -36 15 -45 0
-20 -101 -132 -139 -152 -113 -63 -226 -92 -248 -65 -38 49 -60 615 -27 698
20 51 16 73 -17 82 -64 17 -71 -25 -59 -356 5 -148 12 -302 15 -341 7 -104 -1
-108 -115 -56 -100 46 -154 89 -206 164 -45 66 -48 76 -47 128 0 31 8 72 16
92 23 54 29 133 18 223 -29 242 -43 334 -56 372 -8 24 -15 53 -15 64 0 11 -7
31 -16 44 -15 23 -15 27 0 48 9 12 35 49 57 82 65 96 167 164 294 195 94 24
154 24 209 0z m920 0 c45 -19 56 -36 36 -56 -6 -6 -13 -35 -17 -65 -3 -30 -12
-66 -19 -81 -21 -41 -36 -261 -32 -459 3 -197 11 -226 53 -207 14 6 28 22 32
36 7 29 -3 148 -18 206 -14 57 -6 330 14 450 13 79 21 105 40 124 l25 24 55
-36 c30 -20 71 -56 89 -79 38 -47 118 -188 118 -209 0 -7 7 -26 16 -43 15 -29
35 -126 55 -270 12 -92 8 -253 -7 -266 -6 -5 -15 -35 -19 -67 -4 -31 -15 -76
-26 -99 -10 -23 -19 -46 -19 -52 0 -22 -71 -129 -113 -170 -54 -52 -75 -65
-174 -107 -51 -21 -127 -28 -140 -13 -38 49 -60 615 -27 698 20 51 16 73 -17
82 -64 17 -71 -25 -59 -356 5 -148 12 -302 15 -341 7 -104 -1 -108 -115 -56
-101 46 -157 91 -201 159 -38 61 -39 66 -28 100 29 88 57 335 58 504 1 94 -7
133 -55 279 -34 103 -37 120 -25 158 27 86 154 177 296 213 95 23 154 23 209
-1z m-2873 -65 c4 -22 10 -150 14 -285 8 -259 15 -300 55 -300 11 0 26 12 35
29 13 27 13 36 -1 93 -21 79 -26 479 -7 499 40 41 256 -160 278 -259 4 -21 22
-45 51 -70 66 -55 92 -106 133 -267 12 -46 3 -211 -14 -261 -8 -25 -15 -55
-15 -67 0 -12 -13 -47 -28 -77 -23 -46 -31 -54 -50 -52 -36 5 -62 -24 -62 -72
0 -36 -5 -44 -38 -67 -47 -33 -125 -53 -151 -40 -26 14 -31 52 -31 221 0 159
-3 180 -28 180 -38 0 -52 -30 -51 -109 0 -42 4 -98 9 -126 21 -113 24 -155 8
-155 -40 0 -48 22 -58 155 -10 142 -36 350 -46 367 -8 12 -56 1 -66 -15 -12
-19 -9 -78 7 -141 9 -33 22 -107 30 -165 8 -58 17 -116 21 -128 6 -20 3 -23
-24 -23 -16 0 -35 7 -42 15 -7 8 -17 15 -22 15 -19 0 -94 59 -176 137 l-84 80
6 94 c3 52 8 119 11 149 8 68 -19 289 -40 329 -8 17 -15 46 -15 67 0 32 9 45
83 118 45 45 98 90 117 99 19 10 49 25 65 34 17 9 41 22 55 30 43 22 64 13 71
-32z m-1135 -1 c90 -48 133 -118 141 -229 4 -52 1 -82 -12 -115 -23 -58 -30
-142 -15 -170 10 -18 17 -21 43 -15 18 4 65 8 104 9 59 1 77 5 93 22 23 23 19
49 -11 64 -12 7 -31 6 -60 -4 -44 -15 -72 -9 -82 18 -3 8 -1 47 5 88 5 40 8
96 5 124 -5 47 -3 54 21 76 59 54 88 68 144 68 47 0 63 -6 114 -39 110 -74
127 -94 128 -148 2 -63 11 -76 46 -68 27 6 30 4 40 -37 7 -24 18 -64 27 -89
11 -35 14 -87 11 -220 -3 -165 -4 -175 -25 -197 -24 -23 -27 -35 -24 -94 3
-38 -10 -64 -66 -134 -55 -69 -100 -94 -167 -94 -49 0 -69 7 -144 47 -48 25
-90 51 -94 57 -11 15 -10 228 1 244 4 7 41 24 82 36 70 21 74 24 77 54 4 42
-17 50 -68 27 -24 -11 -53 -16 -77 -13 -95 12 -122 -31 -104 -164 15 -114 14
-181 -6 -220 -9 -18 -19 -39 -23 -47 -11 -24 -129 -60 -199 -61 -90 0 -182 44
-278 134 -35 33 -43 47 -43 76 0 19 7 48 15 63 8 16 18 59 21 95 8 84 18 106
42 93 10 -5 47 -13 82 -17 36 -4 91 -15 124 -25 32 -11 78 -19 103 -19 37 0
45 4 53 25 5 14 7 31 4 39 -11 29 -104 49 -254 55 l-145 6 -8 125 c-4 69 -14
152 -22 186 -8 33 -15 70 -15 83 0 12 -9 39 -20 61 -33 65 -27 105 23 153 46
45 132 95 182 108 17 4 64 7 106 8 64 1 84 -3 125 -25z m-771 -14 c62 -21 141
-68 170 -100 10 -11 19 -38 20 -61 2 -43 16 -59 50 -59 27 0 60 -74 80 -176 8
-43 19 -82 25 -88 15 -15 13 -181 -3 -194 -7 -6 -92 -12 -207 -14 -152 -2
-200 -6 -218 -18 -20 -13 -24 -13 -33 0 -16 23 -4 227 17 277 22 54 13 93 -21
93 -34 0 -45 -27 -55 -128 -5 -48 -14 -140 -20 -205 -7 -64 -10 -124 -7 -131
10 -25 55 -50 70 -38 37 31 132 72 202 87 104 23 261 26 276 5 21 -31 -9 -195
-40 -214 -5 -3 -25 10 -44 29 -19 19 -39 35 -44 35 -5 0 -20 -11 -32 -24 -28
-29 -21 -47 45 -118 50 -53 54 -76 22 -112 -13 -13 -45 -49 -73 -80 -27 -31
-53 -56 -58 -56 -5 0 -21 -9 -36 -19 -15 -11 -45 -22 -66 -26 -22 -4 -55 -12
-72 -18 -43 -14 -155 13 -232 56 -55 31 -201 161 -201 179 0 6 -9 21 -20 35
-24 30 -26 89 -6 138 22 51 28 131 17 220 -29 242 -43 334 -56 372 -20 59 -19
86 4 107 11 10 23 32 27 50 9 41 37 97 60 117 11 9 46 28 79 41 141 59 279 73
380 38z m-893 -35 c113 -52 199 -134 257 -246 30 -57 59 -182 82 -349 21 -159
22 -211 2 -264 -22 -59 -37 -67 -51 -27 -6 16 -23 38 -38 47 -26 18 -27 18
-49 -10 -22 -27 -22 -30 -7 -70 9 -22 22 -48 29 -57 7 -8 13 -27 13 -41 0 -27
-24 -40 -150 -74 -30 -9 -94 -29 -143 -45 -100 -34 -121 -30 -129 23 -9 65 1
187 22 272 24 96 23 124 -2 140 -14 8 -22 6 -40 -12 -30 -30 -39 -127 -28
-307 7 -106 6 -141 -3 -148 -18 -12 -110 0 -154 20 -41 19 -117 76 -199 149
-50 44 -51 47 -43 82 4 20 16 52 25 70 13 26 15 51 11 110 -6 98 -39 173 -107
242 -27 29 -50 60 -50 69 0 10 35 49 78 88 70 64 79 76 100 139 12 38 22 73
22 77 0 18 60 68 126 103 82 44 136 54 269 49 83 -3 110 -8 157 -30z m3880 0
c113 -52 199 -134 257 -246 43 -82 93 -349 95 -509 1 -74 1 -75 -24 -72 -14 2
-33 11 -43 20 -16 14 -19 14 -39 -5 -24 -24 -25 -50 -7 -140 6 -34 9 -68 6
-76 -5 -14 -60 -36 -157 -63 -30 -9 -94 -29 -143 -45 -100 -34 -121 -30 -129
23 -9 65 1 187 22 272 24 96 23 124 -2 140 -14 8 -22 6 -40 -12 -30 -30 -39
-127 -28 -307 7 -106 6 -141 -3 -148 -18 -12 -110 0 -154 20 -21 10 -62 37
-91 60 -30 24 -58 43 -63 43 -17 0 -9 75 11 113 11 20 20 47 20 60 0 12 9 50
21 82 19 53 21 76 16 185 -3 89 -9 134 -21 155 -9 17 -16 41 -16 54 0 22 -14
57 -63 157 -12 25 -18 50 -14 65 18 69 178 183 282 200 27 4 95 6 150 4 83 -3
110 -8 157 -30z m-957 -1256 c23 -36 53 -275 41 -323 -10 -40 -24 -31 -31 22
-4 26 -15 84 -26 128 -19 82 -25 165 -12 177 9 10 21 8 28 -4z"/>
<path d="M6242 1947 c-12 -13 -22 -27 -22 -31 0 -4 -7 -22 -15 -39 -16 -36
-41 -104 -57 -156 -10 -36 -8 -165 4 -177 4 -3 19 -3 33 0 36 9 47 44 33 108
-15 71 -6 112 42 183 38 58 46 87 34 119 -9 22 -27 20 -52 -7z"/>
<path d="M6104 1498 c-14 -22 -8 -97 9 -116 20 -22 22 -68 5 -79 -7 -4 -23
-20 -36 -34 -19 -22 -21 -30 -13 -52 14 -35 57 -38 70 -4 5 12 20 32 34 45 24
22 26 23 55 8 17 -9 33 -20 36 -25 7 -11 123 -66 157 -74 20 -5 32 -1 49 18
21 23 22 26 7 48 -10 16 -29 26 -55 30 -32 6 -127 41 -141 53 -2 2 10 17 28
33 23 22 31 38 31 64 0 45 -18 51 -66 21 -64 -39 -94 -30 -94 30 0 12 -5 27
-12 34 -15 15 -55 16 -64 0z"/>
<path d="M6935 1758 c-11 -6 -23 -16 -27 -22 -21 -30 6 -76 43 -76 29 0 122
-46 147 -73 l22 -23 -43 -40 c-23 -22 -59 -53 -79 -68 -42 -30 -57 -68 -38
-91 27 -32 53 -16 147 88 24 26 55 52 69 57 24 9 32 5 90 -49 79 -74 98 -81
132 -48 24 24 24 27 9 50 -9 14 -46 40 -82 58 -77 40 -82 58 -24 94 35 23 40
30 37 58 -4 46 -34 46 -94 -1 -75 -59 -76 -59 -157 6 -65 52 -122 92 -129 92
-2 0 -12 -6 -23 -12z"/>
<path d="M10815 1758 c-11 -6 -23 -16 -27 -22 -21 -30 6 -76 43 -76 29 0 122
-46 147 -73 l22 -23 -43 -40 c-23 -22 -59 -53 -79 -68 -42 -30 -57 -68 -38
-91 27 -32 53 -16 147 88 24 26 55 52 69 57 24 9 32 5 90 -49 79 -74 98 -81
132 -48 24 24 24 27 9 50 -9 14 -46 40 -82 58 -77 40 -82 58 -24 94 35 23 40
30 37 58 -4 46 -34 46 -94 -1 -75 -59 -76 -59 -157 6 -65 52 -122 92 -129 92
-2 0 -12 -6 -23 -12z"/>
</g>
</svg>
